<svg width="170" height="55" viewBox="0 0 170 55" fill="none" xmlns="http://www.w3.org/2000/svg">
<path fill-rule="evenodd" clip-rule="evenodd" d="M27.1106 3L48.2214 15.4153V40.1636L27.1106 52.5789L6 40.1636V15.4153L27.1106 3ZM9.4834 38.1861V30.8266L25.3687 40.1642V47.5284L9.4834 38.1861ZM25.3687 36.1385L9.4834 26.8009V19.4412L25.3687 28.7789V36.1385ZM28.8521 47.5287V28.7796L35.0564 25.1326V43.8799L28.8521 47.5287ZM38.5398 41.8313L44.738 38.1861V19.4417L38.5398 23.085V41.8313ZM33.3755 10.7105L27.1106 7.02612L11.1648 16.404L17.4272 20.0851L33.3755 10.7105ZM36.7988 12.7238L20.8516 22.0979L27.1111 25.7773L43.0569 16.4042L36.7988 12.7238Z" fill="#D44235"/>
<path d="M70.0036 38.6829C68.3702 38.6829 66.7745 38.4615 65.2165 38.0187C63.6585 37.5759 62.4146 37.0159 61.4849 36.3387L63.2941 32.627C64.1988 33.2522 65.2793 33.7601 66.5358 34.1508C67.8174 34.5154 69.0738 34.6978 70.3051 34.6978C73.1196 34.6978 74.5268 33.9294 74.5268 32.3926C74.5268 31.6633 74.1624 31.1554 73.4337 30.8689C72.7301 30.5824 71.5867 30.3089 70.0036 30.0484C68.3451 29.7879 66.9881 29.4884 65.9327 29.1498C64.9024 28.8112 63.9978 28.2251 63.2188 27.3916C62.4649 26.5321 62.088 25.347 62.088 23.8362C62.088 21.8567 62.8795 20.2808 64.4626 19.1087C66.0709 17.9106 68.232 17.3115 70.9459 17.3115C72.328 17.3115 73.7101 17.4808 75.0922 17.8194C76.4743 18.132 77.6051 18.5618 78.4846 19.1087L76.6753 22.8204C74.9665 21.7785 73.0442 21.2576 70.9082 21.2576C69.5261 21.2576 68.4707 21.479 67.742 21.9218C67.0384 22.3385 66.6866 22.8986 66.6866 23.6018C66.6866 24.3832 67.0635 24.9432 67.8174 25.2818C68.5963 25.5944 69.79 25.8939 71.3982 26.1804C73.0065 26.4409 74.3257 26.7405 75.356 27.0791C76.3863 27.4177 77.2658 27.9907 77.9946 28.7982C78.7484 29.6056 79.1254 30.7517 79.1254 32.2363C79.1254 34.1898 78.3087 35.7526 76.6753 36.9248C75.0419 38.0969 72.818 38.6829 70.0036 38.6829Z" fill="#2B2B2B"/>
<path d="M94.491 37.2764C93.9382 37.7452 93.2597 38.0969 92.4556 38.3313C91.6766 38.5657 90.8473 38.6829 89.9678 38.6829C87.7565 38.6829 86.0477 38.0838 84.8415 36.8857C83.6353 35.6875 83.0322 33.9424 83.0322 31.6503V12.9357H87.7439V17.7022H93.1341V21.6092H87.7439V31.5331C87.7439 32.5489 87.9826 33.3303 88.4601 33.8773C88.9627 34.3982 89.6537 34.6587 90.5332 34.6587C91.5886 34.6587 92.4681 34.3722 93.1717 33.7991L94.491 37.2764Z" fill="#2B2B2B"/>
<path d="M117.399 17.5459V38.4094H112.913V35.7136C112.134 36.7034 111.167 37.4457 110.011 37.9406C108.88 38.4355 107.624 38.6829 106.242 38.6829C104.282 38.6829 102.523 38.2401 100.965 37.3545C99.4317 36.4689 98.2255 35.2187 97.346 33.6038C96.4916 31.9889 96.0644 30.1135 96.0644 27.9777C96.0644 25.8418 96.4916 23.9795 97.346 22.3906C98.2255 20.7757 99.4317 19.5255 100.965 18.6399C102.523 17.7543 104.282 17.3115 106.242 17.3115C107.548 17.3115 108.742 17.5459 109.823 18.0148C110.928 18.4836 111.883 19.1739 112.687 20.0855V17.5459H117.399ZM106.769 34.5024C108.503 34.5024 109.936 33.9033 111.066 32.7052C112.197 31.507 112.763 29.9312 112.763 27.9777C112.763 26.0242 112.197 24.4483 111.066 23.2502C109.936 22.052 108.503 21.453 106.769 21.453C105.035 21.453 103.603 22.052 102.472 23.2502C101.367 24.4483 100.814 26.0242 100.814 27.9777C100.814 29.9312 101.367 31.507 102.472 32.7052C103.603 33.9033 105.035 34.5024 106.769 34.5024Z" fill="#2B2B2B"/>
<path d="M132.798 38.6829C130.713 38.6829 128.841 38.2271 127.182 37.3155C125.524 36.4038 124.229 35.1405 123.3 33.5256C122.37 31.8847 121.905 30.0354 121.905 27.9777C121.905 25.92 122.37 24.0837 123.3 22.4688C124.229 20.8539 125.511 19.5906 127.144 18.679C128.803 17.7673 130.688 17.3115 132.798 17.3115C134.784 17.3115 136.517 17.7283 138 18.5618C139.508 19.3953 140.639 20.5934 141.392 22.1562L137.774 24.3441C137.196 23.3804 136.467 22.6641 135.588 22.1953C134.733 21.7004 133.791 21.453 132.761 21.453C131.002 21.453 129.544 22.052 128.388 23.2502C127.232 24.4223 126.654 25.9981 126.654 27.9777C126.654 29.9572 127.22 31.5461 128.351 32.7442C129.507 33.9163 130.977 34.5024 132.761 34.5024C133.791 34.5024 134.733 34.268 135.588 33.7991C136.467 33.3042 137.196 32.5749 137.774 31.6112L141.392 33.7991C140.613 35.3619 139.47 36.5731 137.962 37.4327C136.48 38.2662 134.758 38.6829 132.798 38.6829Z" fill="#2B2B2B"/>
<path d="M154.406 38.6829C152.32 38.6829 150.448 38.2271 148.79 37.3155C147.131 36.4038 145.837 35.1405 144.907 33.5256C143.977 31.8847 143.512 30.0354 143.512 27.9777C143.512 25.92 143.977 24.0837 144.907 22.4688C145.837 20.8539 147.118 19.5906 148.752 18.679C150.41 17.7673 152.295 17.3115 154.406 17.3115C156.391 17.3115 158.125 17.7283 159.608 18.5618C161.115 19.3953 162.246 20.5934 163 22.1562L159.381 24.3441C158.803 23.3804 158.075 22.6641 157.195 22.1953C156.341 21.7004 155.398 21.453 154.368 21.453C152.609 21.453 151.152 22.052 149.996 23.2502C148.84 24.4223 148.262 25.9981 148.262 27.9777C148.262 29.9572 148.827 31.5461 149.958 32.7442C151.114 33.9163 152.584 34.5024 154.368 34.5024C155.398 34.5024 156.341 34.268 157.195 33.7991C158.075 33.3042 158.803 32.5749 159.381 31.6112L163 33.7991C162.221 35.3619 161.078 36.5731 159.57 37.4327C158.087 38.2662 156.366 38.6829 154.406 38.6829Z" fill="#2B2B2B"/>
<path d="M68.5688 46.464C69.0784 46.464 69.4788 46.6208 69.77 46.9344C70.0612 47.2424 70.2068 47.6624 70.2068 48.1944V51H69.1064V48.5136C69.1064 48.1944 69.0168 47.9452 68.8376 47.766C68.664 47.5812 68.426 47.4888 68.1236 47.4888C67.7764 47.5 67.4992 47.626 67.292 47.8668C67.0904 48.1076 66.9896 48.4128 66.9896 48.7824V51H65.8892V48.5136C65.8892 48.1944 65.8024 47.9452 65.6288 47.766C65.4552 47.5812 65.2172 47.4888 64.9148 47.4888C64.562 47.5 64.282 47.626 64.0748 47.8668C63.8732 48.1076 63.7724 48.4128 63.7724 48.7824V51H62.6804V46.506H63.7724V47.3376C64.0692 46.7664 64.5956 46.4752 65.3516 46.464C65.7436 46.464 66.0712 46.5592 66.3344 46.7496C66.6032 46.9344 66.7908 47.1976 66.8972 47.5392C67.1828 46.8336 67.74 46.4752 68.5688 46.464ZM73.3905 46.4724C73.8553 46.4724 74.2641 46.5676 74.6169 46.758C74.9753 46.9484 75.2525 47.2172 75.4485 47.5644C75.6501 47.906 75.7509 48.3008 75.7509 48.7488C75.7509 49.2024 75.6501 49.6028 75.4485 49.95C75.2525 50.2972 74.9753 50.566 74.6169 50.7564C74.2641 50.9468 73.8553 51.042 73.3905 51.042C72.9201 51.042 72.5057 50.9468 72.1473 50.7564C71.7889 50.566 71.5089 50.2972 71.3073 49.95C71.1113 49.6028 71.0133 49.2024 71.0133 48.7488C71.0133 48.3008 71.1113 47.906 71.3073 47.5644C71.5089 47.2172 71.7889 46.9484 72.1473 46.758C72.5057 46.5676 72.9201 46.4724 73.3905 46.4724ZM73.3905 47.4048C73.0097 47.4048 72.7017 47.5308 72.4665 47.7828C72.2313 48.0348 72.1137 48.3624 72.1137 48.7656C72.1137 49.1688 72.2313 49.4964 72.4665 49.7484C72.7017 50.0004 73.0097 50.1264 73.3905 50.1264C73.7601 50.1264 74.0625 50.0004 74.2977 49.7484C74.5329 49.4964 74.6505 49.1688 74.6505 48.7656C74.6505 48.3624 74.5329 48.0348 74.2977 47.7828C74.0625 47.5308 73.7601 47.4048 73.3905 47.4048ZM75.8549 46.5144L76.9973 46.506L78.1733 49.9248L79.3241 46.506H80.4245L78.7109 51H77.5853L75.8549 46.5144ZM81.0554 46.506H82.1474V51H81.0554V46.506ZM81.593 44.574C81.7722 44.574 81.9206 44.6356 82.0382 44.7588C82.1558 44.882 82.2146 45.0388 82.2146 45.2292C82.2146 45.414 82.1558 45.568 82.0382 45.6912C81.9206 45.8144 81.7722 45.876 81.593 45.876C81.4138 45.876 81.2654 45.8144 81.1478 45.6912C81.0302 45.568 80.9714 45.414 80.9714 45.2292C80.9714 45.0388 81.0302 44.882 81.1478 44.7588C81.2654 44.6356 81.4138 44.574 81.593 44.574ZM86.2047 46.464C86.7199 46.464 87.1259 46.6208 87.4227 46.9344C87.7195 47.2424 87.8679 47.6624 87.8679 48.1944V51H86.7675V48.5136C86.7675 48.2 86.6779 47.9536 86.4987 47.7744C86.3195 47.5896 86.0759 47.4972 85.7679 47.4972C85.4039 47.5028 85.1155 47.626 84.9027 47.8668C84.6955 48.1076 84.5919 48.4156 84.5919 48.7908V51H83.4999V46.506H84.5919V47.346C84.8999 46.7692 85.4375 46.4752 86.2047 46.464ZM93.2021 46.506V50.5716C93.2021 50.9972 93.1041 51.3668 92.9081 51.6804C92.7177 51.9996 92.4433 52.2432 92.0849 52.4112C91.7321 52.5848 91.3205 52.6716 90.8501 52.6716C90.1669 52.6716 89.5341 52.4728 88.9517 52.0752L89.3885 51.2856C89.8141 51.5992 90.2817 51.756 90.7913 51.756C91.1945 51.756 91.5137 51.6524 91.7489 51.4452C91.9897 51.238 92.1101 50.9552 92.1101 50.5968V50.0676C91.9589 50.2972 91.7629 50.4736 91.5221 50.5968C91.2813 50.7144 91.0013 50.7732 90.6821 50.7732C90.2901 50.7732 89.9429 50.6836 89.6405 50.5044C89.3381 50.3196 89.1029 50.0648 88.9349 49.74C88.7669 49.4096 88.6829 49.0316 88.6829 48.606C88.6829 48.186 88.7669 47.8164 88.9349 47.4972C89.1029 47.1724 89.3381 46.9204 89.6405 46.7412C89.9429 46.562 90.2901 46.4724 90.6821 46.4724C90.9957 46.4724 91.2729 46.534 91.5137 46.6572C91.7601 46.7804 91.9589 46.954 92.1101 47.178V46.506H93.2021ZM90.9173 49.9164C91.2701 49.9164 91.5557 49.7988 91.7741 49.5636C91.9981 49.3228 92.1101 49.012 92.1101 48.6312C92.1101 48.2504 91.9981 47.9424 91.7741 47.7072C91.5557 47.4664 91.2701 47.346 90.9173 47.346C90.5645 47.346 90.2761 47.4664 90.0521 47.7072C89.8337 47.948 89.7217 48.256 89.7161 48.6312C89.7217 49.012 89.8337 49.3228 90.0521 49.5636C90.2761 49.7988 90.5645 49.9164 90.9173 49.9164ZM98.4161 45.6576C98.2481 45.6576 98.1081 45.7052 97.9961 45.8004C97.8897 45.8956 97.8365 46.0384 97.8365 46.2288V46.6908H98.9621V47.4888H97.8365V51H96.7445V47.4888H96.1565V46.6908H96.7445V46.2624C96.7445 45.932 96.8173 45.652 96.9629 45.4224C97.1085 45.1872 97.3017 45.0108 97.5425 44.8932C97.7889 44.7756 98.0549 44.7168 98.3405 44.7168C98.6205 44.7168 98.8949 44.7812 99.1637 44.91L98.9705 45.792C98.7465 45.7024 98.5617 45.6576 98.4161 45.6576ZM99.6089 46.506H100.701V51H99.6089V46.506ZM100.146 44.574C100.326 44.574 100.474 44.6356 100.592 44.7588C100.709 44.882 100.768 45.0388 100.768 45.2292C100.768 45.414 100.709 45.568 100.592 45.6912C100.474 45.8144 100.326 45.876 100.146 45.876C99.9673 45.876 99.8189 45.8144 99.7013 45.6912C99.5837 45.568 99.5249 45.414 99.5249 45.2292C99.5249 45.0388 99.5837 44.882 99.7013 44.7588C99.8189 44.6356 99.9673 44.574 100.146 44.574ZM104.76 46.464C105.275 46.464 105.681 46.6208 105.978 46.9344C106.275 47.2424 106.423 47.6624 106.423 48.1944V51H105.323V48.5136C105.323 48.2 105.233 47.9536 105.054 47.7744C104.875 47.5896 104.631 47.4972 104.323 47.4972C103.959 47.5028 103.671 47.626 103.458 47.8668C103.251 48.1076 103.147 48.4156 103.147 48.7908V51H102.055V46.506H103.147V47.346C103.455 46.7692 103.993 46.4752 104.76 46.464ZM110.304 51V50.454C110.148 50.65 109.946 50.7984 109.7 50.8992C109.453 51 109.17 51.0504 108.851 51.0504C108.538 51.0504 108.26 50.9916 108.02 50.874C107.784 50.7508 107.602 50.5828 107.474 50.37C107.345 50.1572 107.28 49.9192 107.28 49.656C107.28 49.236 107.429 48.9084 107.726 48.6732C108.022 48.4324 108.442 48.3092 108.986 48.3036H110.296V48.186C110.296 47.9228 110.209 47.7184 110.036 47.5728C109.862 47.4272 109.61 47.3544 109.28 47.3544C108.854 47.3544 108.409 47.4944 107.944 47.7744L107.549 47.0184C107.902 46.8224 108.221 46.6824 108.507 46.5984C108.798 46.5088 109.137 46.464 109.523 46.464C110.106 46.464 110.556 46.604 110.876 46.884C111.2 47.164 111.366 47.556 111.371 48.06L111.38 51H110.304ZM109.112 50.2104C109.425 50.2104 109.694 50.1376 109.918 49.992C110.142 49.8408 110.268 49.656 110.296 49.4376V49.0344H109.162C108.871 49.0344 108.655 49.0792 108.515 49.1688C108.381 49.2528 108.314 49.3928 108.314 49.5888C108.314 49.7792 108.384 49.9304 108.524 50.0424C108.669 50.1544 108.865 50.2104 109.112 50.2104ZM115.309 46.464C115.825 46.464 116.231 46.6208 116.527 46.9344C116.824 47.2424 116.973 47.6624 116.973 48.1944V51H115.872V48.5136C115.872 48.2 115.783 47.9536 115.603 47.7744C115.424 47.5896 115.181 47.4972 114.873 47.4972C114.509 47.5028 114.22 47.626 114.007 47.8668C113.8 48.1076 113.697 48.4156 113.697 48.7908V51H112.605V46.506H113.697V47.346C114.005 46.7692 114.542 46.4752 115.309 46.464ZM121.29 47.9256C120.988 47.5952 120.596 47.43 120.114 47.43C119.75 47.43 119.454 47.5532 119.224 47.7996C119 48.046 118.888 48.3652 118.888 48.7572C118.888 49.1604 119 49.4852 119.224 49.7316C119.454 49.978 119.75 50.1012 120.114 50.1012C120.652 50.1012 121.055 49.9248 121.324 49.572L122.004 50.1348C121.803 50.426 121.537 50.65 121.206 50.8068C120.876 50.9636 120.492 51.042 120.056 51.042C119.613 51.042 119.218 50.9468 118.871 50.7564C118.53 50.566 118.264 50.3 118.073 49.9584C117.883 49.6112 117.788 49.2136 117.788 48.7656C117.788 48.312 117.883 47.9116 118.073 47.5644C118.269 47.2172 118.538 46.9484 118.88 46.758C119.227 46.5676 119.624 46.4724 120.072 46.4724C120.481 46.4724 120.845 46.5452 121.164 46.6908C121.489 46.8308 121.752 47.0324 121.954 47.2956L121.29 47.9256ZM124.658 46.4724C125.375 46.4724 125.912 46.6768 126.271 47.0856C126.635 47.4944 126.817 48.0684 126.817 48.8076C126.817 48.9532 126.814 49.0624 126.808 49.1352H123.49C123.563 49.4544 123.711 49.7064 123.935 49.8912C124.165 50.0704 124.445 50.16 124.775 50.16C125.005 50.16 125.223 50.118 125.431 50.034C125.643 49.9444 125.828 49.8184 125.985 49.656L126.573 50.2692C126.349 50.5156 126.075 50.706 125.75 50.8404C125.431 50.9748 125.075 51.042 124.683 51.042C124.224 51.042 123.818 50.9468 123.465 50.7564C123.118 50.566 122.849 50.3 122.659 49.9584C122.468 49.6112 122.373 49.2136 122.373 48.7656C122.373 48.3176 122.468 47.92 122.659 47.5728C122.855 47.2256 123.126 46.9568 123.473 46.7664C123.821 46.5704 124.215 46.4724 124.658 46.4724ZM125.817 48.4044C125.806 48.074 125.697 47.8108 125.489 47.6148C125.282 47.4188 125.008 47.3208 124.666 47.3208C124.347 47.3208 124.078 47.4188 123.86 47.6148C123.647 47.8052 123.515 48.0684 123.465 48.4044H125.817ZM131.688 45.6576C131.52 45.6576 131.38 45.7052 131.268 45.8004C131.162 45.8956 131.108 46.0384 131.108 46.2288V46.6908H132.234V47.4888H131.108V51H130.016V47.4888H129.428V46.6908H130.016V46.2624C130.016 45.932 130.089 45.652 130.235 45.4224C130.38 45.1872 130.574 45.0108 130.814 44.8932C131.061 44.7756 131.327 44.7168 131.612 44.7168C131.892 44.7168 132.167 44.7812 132.436 44.91L132.242 45.792C132.018 45.7024 131.834 45.6576 131.688 45.6576ZM134.766 46.4724C135.231 46.4724 135.64 46.5676 135.993 46.758C136.351 46.9484 136.628 47.2172 136.824 47.5644C137.026 47.906 137.127 48.3008 137.127 48.7488C137.127 49.2024 137.026 49.6028 136.824 49.95C136.628 50.2972 136.351 50.566 135.993 50.7564C135.64 50.9468 135.231 51.042 134.766 51.042C134.296 51.042 133.882 50.9468 133.523 50.7564C133.165 50.566 132.885 50.2972 132.683 49.95C132.487 49.6028 132.389 49.2024 132.389 48.7488C132.389 48.3008 132.487 47.906 132.683 47.5644C132.885 47.2172 133.165 46.9484 133.523 46.758C133.882 46.5676 134.296 46.4724 134.766 46.4724ZM134.766 47.4048C134.386 47.4048 134.078 47.5308 133.842 47.7828C133.607 48.0348 133.49 48.3624 133.49 48.7656C133.49 49.1688 133.607 49.4964 133.842 49.7484C134.078 50.0004 134.386 50.1264 134.766 50.1264C135.136 50.1264 135.438 50.0004 135.674 49.7484C135.909 49.4964 136.026 49.1688 136.026 48.7656C136.026 48.3624 135.909 48.0348 135.674 47.7828C135.438 47.5308 135.136 47.4048 134.766 47.4048ZM139.167 47.3712C139.319 47.08 139.523 46.8588 139.781 46.7076C140.044 46.5508 140.349 46.4696 140.696 46.464V47.5224C140.231 47.4944 139.859 47.6036 139.579 47.85C139.305 48.0908 139.167 48.4184 139.167 48.8328V51H138.075V46.506H139.167V47.3712ZM140.988 46.5144L142.113 46.506L143.214 49.8996L144.28 46.506H145.381L146.464 49.8996L147.54 46.506H148.64L147.01 51H145.893L144.818 47.8332L143.751 51H142.634L140.988 46.5144ZM151.812 51V50.454C151.655 50.65 151.454 50.7984 151.207 50.8992C150.961 51 150.678 51.0504 150.359 51.0504C150.045 51.0504 149.768 50.9916 149.527 50.874C149.292 50.7508 149.11 50.5828 148.981 50.37C148.853 50.1572 148.788 49.9192 148.788 49.656C148.788 49.236 148.937 48.9084 149.233 48.6732C149.53 48.4324 149.95 48.3092 150.493 48.3036H151.804V48.186C151.804 47.9228 151.717 47.7184 151.543 47.5728C151.37 47.4272 151.118 47.3544 150.787 47.3544C150.362 47.3544 149.917 47.4944 149.452 47.7744L149.057 47.0184C149.41 46.8224 149.729 46.6824 150.015 46.5984C150.306 46.5088 150.645 46.464 151.031 46.464C151.613 46.464 152.064 46.604 152.383 46.884C152.708 47.164 152.873 47.556 152.879 48.06L152.887 51H151.812ZM150.619 50.2104C150.933 50.2104 151.202 50.1376 151.426 49.992C151.65 49.8408 151.776 49.656 151.804 49.4376V49.0344H150.67C150.379 49.0344 150.163 49.0792 150.023 49.1688C149.889 49.2528 149.821 49.3928 149.821 49.5888C149.821 49.7792 149.891 49.9304 150.031 50.0424C150.177 50.1544 150.373 50.2104 150.619 50.2104ZM155.204 47.3712C155.356 47.08 155.56 46.8588 155.818 46.7076C156.081 46.5508 156.386 46.4696 156.733 46.464V47.5224C156.268 47.4944 155.896 47.6036 155.616 47.85C155.342 48.0908 155.204 48.4184 155.204 48.8328V51H154.112V46.506H155.204V47.3712ZM161.835 44.7672V51H160.743V50.2776C160.58 50.5296 160.37 50.7228 160.113 50.8572C159.861 50.986 159.567 51.0504 159.231 51.0504C158.805 51.0504 158.43 50.9552 158.105 50.7648C157.786 50.5688 157.537 50.2972 157.358 49.95C157.178 49.5972 157.089 49.194 157.089 48.7404C157.089 48.2924 157.176 47.8976 157.349 47.556C157.528 47.2088 157.778 46.94 158.097 46.7496C158.422 46.5592 158.791 46.464 159.206 46.464C159.547 46.464 159.847 46.5312 160.104 46.6656C160.362 46.8 160.575 46.9932 160.743 47.2452V44.7672H161.835ZM159.466 50.1348C159.841 50.1348 160.146 50.0088 160.382 49.7568C160.622 49.4992 160.743 49.1688 160.743 48.7656C160.743 48.3624 160.622 48.0348 160.382 47.7828C160.146 47.5252 159.841 47.3964 159.466 47.3964C159.091 47.3964 158.786 47.5252 158.55 47.7828C158.315 48.0348 158.195 48.3624 158.189 48.7656C158.195 49.1688 158.315 49.4992 158.55 49.7568C158.786 50.0088 159.091 50.1348 159.466 50.1348Z" fill="#B8B8B8"/>
</svg>
